<svg xmlns="http://www.w3.org/2000/svg" width="262" height="57" viewBox="0 0 262 57" fill="none"><circle opacity="0.24" cx="28" cy="28.5142" r="28" fill="white"></circle><path fill-rule="evenodd" clip-rule="evenodd" d="M27.996 12.5142H28.004C36.826 12.5142 44 19.6922 44 28.5142C44 37.3362 36.826 44.5142 28.004 44.5142C24.75 44.5142 21.732 43.5462 19.202 41.8702L13.052 43.8362L15.046 37.8922C13.128 35.2582 12 32.0142 12 28.5142C12 19.6902 19.174 12.5142 27.996 12.5142ZM34.174 37.3661C35.396 37.1021 36.928 36.1981 37.314 35.1081C37.7 34.0161 37.7 33.0861 37.588 32.8881C37.4975 32.731 37.2837 32.6281 36.9644 32.4744C36.8813 32.4343 36.791 32.3909 36.694 32.3421C36.224 32.1081 33.938 30.9781 33.506 30.8281C33.082 30.6681 32.678 30.7241 32.358 31.1761C32.2971 31.2613 32.2364 31.3467 32.176 31.4317C31.7899 31.9746 31.4175 32.4983 31.108 32.8321C30.826 33.1321 30.366 33.1701 29.98 33.0101C29.9379 32.9926 29.8896 32.9731 29.8356 32.9513C29.2244 32.7044 27.8689 32.157 26.228 30.6961C24.844 29.4641 23.904 27.9301 23.632 27.4701C23.3649 27.0087 23.5953 26.7381 23.8081 26.488C23.8121 26.4834 23.816 26.4787 23.82 26.4741C23.9572 26.3043 24.0904 26.1629 24.2243 26.0208C24.3206 25.9185 24.4172 25.8159 24.516 25.7021C24.5306 25.6852 24.5449 25.6688 24.5588 25.6529C24.7684 25.4118 24.8933 25.2682 25.034 24.9681C25.194 24.6581 25.08 24.3381 24.966 24.1021C24.8875 23.9369 24.403 22.7612 23.987 21.752C23.8091 21.3202 23.6436 20.9188 23.528 20.6401C23.218 19.8981 22.982 19.8701 22.512 19.8501C22.4976 19.8494 22.483 19.8487 22.4683 19.8479C22.3197 19.8404 22.1561 19.8321 21.976 19.8321C21.364 19.8321 20.726 20.0121 20.34 20.4061C20.3265 20.4199 20.3124 20.4342 20.2978 20.449C19.804 20.9513 18.704 22.07 18.704 24.3001C18.704 26.5346 20.2894 28.697 20.5827 29.0971C20.5908 29.1081 20.5979 29.1178 20.604 29.1261C20.6216 29.1493 20.6549 29.1975 20.7033 29.2676C21.3023 30.135 24.2196 34.3598 28.57 36.1621C32.246 37.6861 33.338 37.5441 34.174 37.3661Z" fill="white"></path><circle opacity="0.24" cx="100" cy="28.5142" r="28" fill="white"></circle><path fill-rule="evenodd" clip-rule="evenodd" d="M84 27.3282C84 19.1462 91.164 12.5142 100 12.5142C108.836 12.5142 116 19.1482 116 27.3302C116 35.5122 108.836 42.1442 100 42.1442C98.404 42.1442 96.864 41.9262 95.41 41.5242L89.962 44.5142V38.8642C86.326 36.1482 84 31.9902 84 27.3282ZM97.516 28.1186L101.59 32.4646L110.336 23.1806L102.486 27.5266L98.312 23.1806L89.566 32.4646L97.516 28.1186Z" fill="white"></path><circle opacity="0.24" cx="162" cy="28.5142" r="28" fill="white"></circle><path fill-rule="evenodd" clip-rule="evenodd" d="M161.725 26.7463C163.852 28.6523 165.075 31.3769 165.075 34.2237C165.075 34.7858 165.026 35.36 164.916 35.9221C164.867 36.1909 164.941 36.4596 165.112 36.6674C165.283 36.8751 165.528 36.9972 165.797 37.0095C165.943 37.0217 166.09 37.0217 166.237 37.0217C168.291 37.0217 170.321 36.4719 172.094 35.4578L172.29 35.3478L176.508 36.7162C176.838 36.814 177.205 36.7284 177.45 36.4841C177.707 36.2397 177.792 35.8732 177.682 35.5433L176.325 31.3159L176.435 31.1204C177.462 29.3487 178 27.3206 178 25.2679C178 18.7801 172.718 13.5142 166.237 13.5142C163.266 13.5142 160.416 14.6382 158.24 16.6542C156.381 18.3892 155.146 20.6128 154.682 23.0931C154.633 23.3619 154.694 23.6307 154.865 23.8384C155.036 24.0461 155.281 24.1805 155.55 24.1927C157.115 24.2783 158.595 24.7059 159.952 25.4756C160.123 25.5734 160.319 25.61 160.502 25.5856C160.478 25.5001 160.465 25.4023 160.465 25.3168C160.465 24.7181 160.955 24.2416 161.541 24.2416C162.141 24.2416 162.617 24.7181 162.617 25.3168C162.617 25.9155 162.128 26.392 161.541 26.392H161.48C161.529 26.5264 161.615 26.6486 161.725 26.7463ZM172.033 25.329C172.033 25.9277 171.544 26.4042 170.957 26.4042C170.37 26.4042 169.881 25.9277 169.881 25.329C169.881 24.7303 170.37 24.2538 170.957 24.2538C171.556 24.2538 172.033 24.7303 172.033 25.329ZM167.582 25.329C167.582 25.9277 167.093 26.4042 166.506 26.4042C165.919 26.4042 165.43 25.9277 165.43 25.329C165.43 24.7303 165.907 24.2538 166.506 24.2538C167.105 24.2538 167.582 24.7303 167.582 25.329Z" fill="white"></path><path d="M154.522 26.2209C154.498 25.9521 154.596 25.6956 154.779 25.5001C154.963 25.3046 155.232 25.2068 155.501 25.219C160.294 25.4634 164.048 29.4221 164.048 34.2237C164.048 34.7369 163.999 35.2501 163.913 35.751C163.864 36.0198 163.705 36.2519 163.485 36.3863C163.339 36.4719 163.167 36.5207 162.996 36.5207C162.898 36.5207 162.813 36.5085 162.715 36.4719C158.203 35.0546 154.914 30.9371 154.522 26.2209Z" fill="white"></path><path fill-rule="evenodd" clip-rule="evenodd" d="M147.308 38.9033L147.198 38.7078C146.416 37.3516 146 35.7999 146 34.2237C146 32.0612 146.783 29.9719 148.189 28.3347C149.289 27.064 150.708 26.1232 152.297 25.6222C152.566 25.5367 152.86 25.5734 153.092 25.7322C153.324 25.891 153.483 26.1354 153.508 26.4164C153.703 28.5668 154.449 30.6316 155.66 32.4155C155.244 32.5621 154.938 32.9531 154.938 33.4296C154.938 34.016 155.415 34.5048 156.015 34.5048C156.394 34.5048 156.736 34.2971 156.919 33.9916C158.399 35.5677 160.245 36.7407 162.3 37.4127C162.569 37.4982 162.776 37.7059 162.874 37.9625C162.972 38.219 162.948 38.5245 162.813 38.7566C162.141 39.9051 161.236 40.8704 160.135 41.6401C158.619 42.6786 156.858 43.2284 155.012 43.2284C153.434 43.2284 151.882 42.813 150.524 42.0311L150.329 41.9211L147.59 42.8008C147.259 42.9108 146.893 42.8253 146.648 42.5687C146.404 42.3243 146.318 41.9578 146.416 41.6279L147.308 38.9033ZM151.05 34.5048C151.637 34.5048 152.126 34.0283 152.126 33.4296C152.126 32.8309 151.649 32.3544 151.05 32.3544C150.463 32.3544 149.974 32.8309 149.974 33.4296C149.974 34.0283 150.451 34.5048 151.05 34.5048Z" fill="white"></path><circle opacity="0.24" cx="234" cy="28.5142" r="28" fill="white"></circle><path fill-rule="evenodd" clip-rule="evenodd" d="M233.912 12.5142C229.591 12.5142 229.049 12.5332 227.352 12.6108C225.658 12.6888 224.502 12.9585 223.49 13.3542C222.443 13.7628 221.556 14.3095 220.671 15.1992C219.786 16.0885 219.243 16.9812 218.835 18.0332C218.441 19.0508 218.172 20.2138 218.096 21.9165C218.02 23.6232 218 24.1688 218 28.5142C218 32.8595 218.019 33.4032 218.096 35.1098C218.174 36.8132 218.442 37.9758 218.835 38.9932C219.242 40.0455 219.786 40.9382 220.67 41.8275C221.554 42.7175 222.442 43.2655 223.488 43.6742C224.5 44.0698 225.657 44.3395 227.35 44.4175C229.047 44.4952 229.589 44.5142 233.91 44.5142C238.232 44.5142 238.772 44.4952 240.469 44.4175C242.163 44.3395 243.321 44.0698 244.333 43.6742C245.379 43.2655 246.265 42.7175 247.149 41.8275C248.035 40.9382 248.578 40.0455 248.986 38.9935C249.377 37.9758 249.645 36.8128 249.725 35.1102C249.801 33.4035 249.821 32.8595 249.821 28.5142C249.821 24.1688 249.801 23.6235 249.725 21.9168C249.645 20.2135 249.377 19.0508 248.986 18.0335C248.578 16.9812 248.035 16.0885 247.149 15.1992C246.264 14.3092 245.379 13.7625 244.332 13.3542C243.318 12.9585 242.161 12.6888 240.467 12.6108C238.77 12.5332 238.23 12.5142 233.907 12.5142H233.912ZM232.485 15.3975C232.762 15.397 233.06 15.3972 233.382 15.3973L233.912 15.3975C238.16 15.3975 238.664 15.4128 240.341 15.4895C241.893 15.5608 242.735 15.8215 243.295 16.0405C244.038 16.3305 244.567 16.6771 245.124 17.2371C245.681 17.7971 246.025 18.3305 246.315 19.0771C246.532 19.6405 246.792 20.4871 246.862 22.0471C246.939 23.7338 246.955 24.2405 246.955 28.5105C246.955 32.7805 246.939 33.2871 246.862 34.9738C246.792 36.5338 246.532 37.3805 246.315 37.9438C246.026 38.6905 245.681 39.2221 245.124 39.7818C244.567 40.3418 244.038 40.6885 243.295 40.9785C242.735 41.1985 241.893 41.4585 240.341 41.5298C238.664 41.6065 238.16 41.6231 233.912 41.6231C229.664 41.6231 229.16 41.6065 227.483 41.5298C225.932 41.4578 225.09 41.1971 224.528 40.9781C223.786 40.6881 223.256 40.3415 222.699 39.7815C222.142 39.2215 221.797 38.6895 221.508 37.9425C221.29 37.3791 221.031 36.5325 220.96 34.9725C220.884 33.2858 220.869 32.7791 220.869 28.5065C220.869 24.2338 220.884 23.7298 220.96 22.0431C221.031 20.4831 221.29 19.6365 221.508 19.0725C221.796 18.3258 222.142 17.7925 222.699 17.2325C223.256 16.6725 223.786 16.3258 224.528 16.0351C225.089 15.8151 225.932 15.5551 227.483 15.4835C228.951 15.4168 229.519 15.3968 232.485 15.3935V15.3975ZM240.496 19.9736C240.496 18.9133 241.351 18.0543 242.405 18.0543V18.0536C243.459 18.0536 244.314 18.9136 244.314 19.9736C244.314 21.0336 243.459 21.8936 242.405 21.8936C241.351 21.8936 240.496 21.0336 240.496 19.9736ZM233.912 20.2978C229.4 20.2978 225.741 23.9768 225.741 28.5144C225.741 33.0521 229.4 36.7294 233.912 36.7294C238.424 36.7294 242.082 33.0521 242.082 28.5144C242.082 23.9768 238.424 20.2978 233.912 20.2978H233.912ZM239.216 28.5143C239.216 25.5686 236.841 23.181 233.912 23.181C230.983 23.181 228.608 25.5686 228.608 28.5143C228.608 31.4596 230.983 33.8476 233.912 33.8476C236.841 33.8476 239.216 31.4596 239.216 28.5143Z" fill="white"></path></svg>