<svg xmlns="http://www.w3.org/2000/svg" width="131" height="49" viewBox="0 0 131 49" fill="none"><path fill-rule="evenodd" clip-rule="evenodd" d="M49.7211 0.646154C49.0721 0.215385 48.2069 0 47.4498 0C46.4765 0 45.5031 0.323077 44.5297 1.07692L44.5296 1.07699C43.5563 1.83081 42.5829 2.58463 41.6096 3.23077C39.9873 4.41538 38.365 5.6 36.8508 6.89231C36.4182 7.21538 36.0938 7.43077 35.4449 7.32308H24.6296H23.0073C20.0871 7.32308 17.9241 8.83077 17.167 11.5231C17.1091 11.696 17.0512 11.9614 16.9768 12.3029L16.9768 12.303L16.9767 12.3032L16.9767 12.3032C16.912 12.5997 16.8349 12.9535 16.7344 13.3538H17.3833H17.8159H22.4665C27.1171 13.3538 31.4432 15.4 34.2552 18.9538C37.1753 22.5077 38.2568 27.1385 37.2835 31.6615C37.2835 31.7692 37.2835 31.7692 37.1753 31.8769L37.0672 32.3077C36.959 32.8462 36.8508 33.2769 36.7427 33.7077H38.9058C39.6628 33.7077 40.6362 33.7077 41.6096 33.3846C45.1786 32.4154 45.9357 29.1846 46.152 28.1077C46.4224 26.8692 46.6928 25.6038 46.9632 24.3384L46.9632 24.3382L46.9637 24.3359C47.2339 23.0714 47.5041 21.8069 47.7743 20.5692L47.9906 19.7077C48.1528 18.9 48.3421 18.1192 48.5314 17.3385C48.7206 16.5577 48.9099 15.7769 49.0721 14.9692C49.2344 14.2692 49.3966 13.5962 49.5588 12.9231C49.7211 12.25 49.8833 11.5769 50.0455 10.8769C50.1537 10.5001 50.2348 10.1232 50.3159 9.74632L50.3159 9.74616C50.397 9.36923 50.4781 8.99231 50.5863 8.61539C50.6944 8.07692 50.8296 7.51154 50.9648 6.94615C51.1 6.38077 51.2352 5.81538 51.3434 5.27692C51.9923 3.44615 51.3434 1.61538 49.7211 0.646154ZM17.4915 15.0769H22.5747C26.5763 15.0769 30.2535 16.8 32.7411 19.6C35.4449 22.7231 36.5264 26.8154 35.6612 30.9077V31.1231L35.2286 33.0615C35.1204 33.2769 35.0123 33.4923 34.9041 33.6C34.796 33.7077 34.5797 33.8154 34.3634 33.8154H33.39H33.0655H29.172C25.1703 33.8154 21.4931 32.0923 19.0056 29.2923C16.3018 26.1692 15.2202 22.0769 16.0855 17.9846V17.7692L16.1936 17.4461C16.5985 15.6318 16.7192 15.5156 16.9104 15.3316C16.9234 15.319 16.9368 15.3061 16.9507 15.2923C17.0589 15.1846 17.2752 15.0769 17.4915 15.0769ZM29.172 35.5384H33.8226H34.2552H34.9041C34.8036 35.9389 34.7264 36.2928 34.6617 36.5894C34.5873 36.9308 34.5294 37.1963 34.4715 37.3692C33.7144 40.0615 31.5514 41.5692 28.6312 41.5692H27.0089H16.1936C15.5447 41.4615 15.2203 41.6769 14.7876 42C13.2735 43.2923 11.6512 44.4769 10.0289 45.6615C9.05553 46.3076 8.08215 47.0615 7.10877 47.8153C6.13539 48.5692 5.16201 48.8923 4.18864 48.8923C3.43157 48.8923 2.67449 48.6769 1.91742 48.2461C0.295126 47.2769 -0.353792 45.5538 0.186973 43.5076C0.295126 42.9692 0.430318 42.4038 0.565509 41.8384C0.7007 41.273 0.835892 40.7076 0.944045 40.1692C1.0522 39.7923 1.13331 39.4153 1.21443 39.0384C1.29554 38.6615 1.37666 38.2846 1.48481 37.9076C1.64702 37.2077 1.80924 36.5347 1.97145 35.8617L1.97146 35.8616L1.97147 35.8616L1.97148 35.8616L1.97149 35.8615L1.9715 35.8615L1.97151 35.8615L1.97152 35.8614L1.97155 35.8613L1.97159 35.8611L1.97162 35.861L1.97166 35.8608L1.97169 35.8607C2.13386 35.1879 2.29602 34.5151 2.45819 33.8153C2.62042 33.0076 2.80969 32.2269 2.99895 31.4461L2.99896 31.4461C3.18823 30.6653 3.37749 29.8846 3.53972 29.0769L3.86418 28.323C4.13456 27.0846 4.40494 25.8192 4.67532 24.5538C4.9457 23.2884 5.21609 22.023 5.48647 20.7846C5.70278 19.7076 6.45985 16.4769 10.0289 15.5076C11.0023 15.1846 11.9757 15.1846 12.7327 15.1846H14.8958C14.7876 15.6153 14.6795 16.0461 14.5713 16.5846L14.4632 17.0153C14.4009 17.0773 14.3745 17.1036 14.3633 17.1353C14.355 17.1587 14.355 17.185 14.355 17.2307C13.3816 21.7538 14.4632 26.3846 17.3833 29.9384C20.1953 33.4923 24.5214 35.5384 29.172 35.5384ZM66.7011 15.6154C68.5397 14.1077 70.7028 13.3539 73.2984 13.3539C76.543 13.3539 79.355 14.4308 81.4099 16.8C83.573 18.9539 84.6545 21.7539 84.6545 24.9847C84.6545 28.2154 83.573 31.0154 81.4099 33.1693C79.2469 35.3231 76.543 36.4 73.2984 36.4C71.4598 36.4 69.7294 35.9693 68.2153 35.1077V40.1693C68.2153 40.3847 68.1071 40.6 67.8908 40.7077L62.2668 43.077H62.0505C61.9424 43.077 61.8342 43.077 61.7261 42.9693C61.6179 42.8616 61.5098 42.6462 61.5098 42.4308V14.5385C61.5098 14.1077 61.8342 13.8923 62.1587 13.8923H63.9973C64.1054 13.8923 64.2136 13.8923 64.3217 14L66.7011 15.6154ZM72.8658 29.7231C74.2718 29.7231 75.4615 29.2923 76.4349 28.3231C77.4083 27.3539 77.8409 26.1693 77.8409 24.6616C77.8409 23.6923 77.6246 22.8308 77.192 22.077C76.7594 21.2154 76.2186 20.677 75.4615 20.2462C74.7044 19.8154 73.8392 19.6 72.8658 19.6C71.8925 19.6 71.0272 19.8154 70.2702 20.2462C69.5131 20.677 68.9723 21.3231 68.5397 22.077C68.1071 22.8308 67.8908 23.6923 67.8908 24.6616C67.8908 26.1693 68.3234 27.3539 69.2968 28.3231C70.2702 29.2923 71.3517 29.7231 72.8658 29.7231ZM97.9571 13.3539C94.6044 13.3539 91.7924 14.4308 89.5212 16.5847C87.25 18.7385 86.1685 21.5385 86.1685 24.7693C86.1685 26.9231 86.7092 28.8616 87.6826 30.5847C88.656 32.3077 90.062 33.7077 91.9006 34.677C93.7392 35.6462 95.6859 36.1847 97.9571 36.1847C101.31 36.1847 104.014 35.1077 106.285 32.9539C108.556 30.8 109.638 28 109.638 24.7693C109.638 21.5385 108.556 18.7385 106.285 16.5847C104.014 14.4308 101.202 13.3539 97.9571 13.3539ZM101.418 28.3231C100.553 29.2923 99.3631 29.7231 97.9571 29.7231C97.2001 29.7231 96.5512 29.6154 95.9022 29.4C95.2533 29.1847 94.8207 28.8616 94.3881 28.4308C93.9555 28 93.631 27.4616 93.4147 26.8154C93.1984 26.1693 93.0903 25.5231 93.0903 24.7693C93.0903 23.2616 93.5229 22.077 94.4963 21.1077C95.3615 20.1385 96.5512 19.7077 98.0653 19.7077C99.4713 19.7077 100.661 20.1385 101.634 21.1077C102.5 22.077 103.04 23.2616 103.04 24.7693C102.716 26.277 102.283 27.4616 101.418 28.3231ZM113.207 6.46148L118.831 8.61532C119.047 8.72302 119.155 8.9384 119.263 9.15379V32.3076C119.263 32.523 119.155 32.7384 118.939 32.8461L113.315 35.5384C113.315 35.6461 113.207 35.6461 113.099 35.6461C112.99 35.6461 112.882 35.6461 112.774 35.5384C112.558 35.4307 112.45 35.2153 112.45 34.9999V7.10763C112.45 6.89225 112.558 6.67686 112.666 6.56917C112.774 6.46148 112.99 6.35379 113.207 6.46148ZM129.862 6.13845C129.754 6.03076 129.538 6.03076 129.322 6.03076L123.698 7.75384C123.481 7.86153 123.265 8.07692 123.265 8.2923V11.7385C123.265 12.0615 123.481 12.3846 123.914 12.3846H129.538C129.862 12.3846 130.187 12.1692 130.187 11.7385V6.56922C130.079 6.3539 129.971 6.24621 129.863 6.13855L129.862 6.13845ZM123.914 13.8923H129.538C129.862 13.8923 130.079 14.1077 130.079 14.4308V35C130.079 35.2154 129.971 35.4308 129.862 35.5385C129.754 35.6462 129.646 35.6462 129.538 35.6462H129.322L123.698 33.7077C123.373 33.6 123.265 33.3846 123.265 33.1693V14.5385C123.265 14.1077 123.59 13.8923 123.914 13.8923Z" fill="url(#paint0_linear)"></path><defs><linearGradient id="paint0_linear" x1="127.113" y1="20.9572" x2="123.296" y2="57.3777" gradientUnits="userSpaceOnUse"><stop stop-color="#00ACBD"></stop><stop offset="0.9974" stop-color="#0083BA"></stop></linearGradient></defs></svg>